<?xml version="1.0" encoding="UTF-8"?>
<svg version="1.1" xmlns="http://www.w3.org/2000/svg" width="512" height="512" viewBox="0 0 512 512">
  <path d="M0 0 C1.01790619 0.00215515 2.03581238 0.0043103 3.08456421 0.00653076 C17.69363523 0.05620146 32.02575853 0.30709809 46.375 3.3125 C47.34985352 3.51117676 48.32470703 3.70985352 49.32910156 3.91455078 C88.37782454 12.08284366 124.83813271 27.70153311 156.375 52.3125 C157.27089844 52.99699219 158.16679687 53.68148437 159.08984375 54.38671875 C174.64561709 66.50203669 189.29582193 80.73146847 201.375 96.3125 C202.14972656 97.27027344 202.92445313 98.22804688 203.72265625 99.21484375 C238.26056965 142.61986011 256.81394766 197.76289597 256.69067383 253.03979492 C256.6875221 255.97938487 256.71104926 258.9179558 256.73632812 261.85742188 C256.78098737 275.23056192 255.57551542 288.12666711 253.375 301.3125 C253.09281616 303.01805054 253.09281616 303.01805054 252.80493164 304.75805664 C245.77946967 343.86954746 228.79665906 381.05202178 204.375 412.3125 C203.61574219 413.28445313 202.85648437 414.25640625 202.07421875 415.2578125 C189.73986402 430.63741644 175.93895499 445.19015196 160.375 457.3125 C159.43914062 458.07691406 158.50328125 458.84132813 157.5390625 459.62890625 C125.58628299 485.2157721 86.41988322 501.72551276 46.375 509.3125 C45.56562988 509.47621094 44.75625977 509.63992188 43.92236328 509.80859375 C13.88110013 515.67977137 -20.7615176 514.58512909 -50.625 508.3125 C-52.14794678 507.99901611 -52.14794678 507.99901611 -53.70166016 507.67919922 C-90.84546555 499.78695344 -125.70945445 483.68345578 -155.625 460.3125 C-156.59695312 459.55324219 -157.56890625 458.79398437 -158.5703125 458.01171875 C-173.94991644 445.67736402 -188.50265196 431.87645499 -200.625 416.3125 C-201.77162109 414.90871094 -201.77162109 414.90871094 -202.94140625 413.4765625 C-228.5282721 381.52378299 -245.03801276 342.35738322 -252.625 302.3125 C-252.78871094 301.50312988 -252.95242187 300.69375977 -253.12109375 299.85986328 C-258.59069558 271.87335724 -258.46977511 238.21828161 -252.625 210.3125 C-252.42632324 209.33764648 -252.22764648 208.36279297 -252.02294922 207.35839844 C-241.93598313 159.13741149 -219.89911449 114.53770064 -185.40722656 79.14160156 C-183.63301167 77.32072238 -181.87518486 75.48496071 -180.1171875 73.6484375 C-173.01832106 66.31138736 -165.60682072 59.74213624 -157.41796875 53.64794922 C-155.58092428 52.27967127 -153.75911069 50.89264471 -151.9375 49.50390625 C-143.51077324 43.13790222 -134.81596417 37.50688619 -125.625 32.3125 C-124.99464844 31.94946777 -124.36429688 31.58643555 -123.71484375 31.21240234 C-85.96656579 9.60246645 -43.19754839 -0.16448837 0 0 Z M-155.625 96.3125 C-156.12241699 96.78268555 -156.61983398 97.25287109 -157.13232422 97.73730469 C-165.13838763 105.33444934 -172.03249721 113.47194153 -178.625 122.3125 C-179.05022949 122.87163086 -179.47545898 123.43076172 -179.91357422 124.00683594 C-187.16970107 133.56450244 -193.10360829 143.66807576 -198.625 154.3125 C-199.01574707 155.06128418 -199.40649414 155.81006836 -199.80908203 156.58154297 C-215.67172991 187.3682599 -223.08020261 221.12664341 -223 255.625 C-222.99912384 256.54836151 -222.99824768 257.47172302 -222.99734497 258.42306519 C-222.81378459 317.25448491 -199.15704805 371.11475135 -158.625 413.3125 C-157.7690625 414.2096875 -156.913125 415.106875 -156.03125 416.03125 C-150.26417803 421.9443238 -144.1837581 427.29642238 -137.625 432.3125 C-136.98030762 432.8065332 -136.33561523 433.30056641 -135.67138672 433.80957031 C-124.83901324 442.03586549 -113.72845013 449.11374313 -101.625 455.3125 C-100.8820166 455.69889648 -100.1390332 456.08529297 -99.37353516 456.48339844 C-47.31468466 483.31692993 13.98450289 486.84888824 69.49414062 469.26123047 C102.96928428 458.23712808 132.08101384 439.60803934 157.375 415.3125 C158.72078125 414.02859375 158.72078125 414.02859375 160.09375 412.71875 C166.01226517 406.94637101 171.31283335 400.84514578 176.375 394.3125 C176.79894043 393.77028809 177.22288086 393.22807617 177.65966797 392.66943359 C208.01011115 353.60307944 223.86836364 305.74996348 223.75 256.4375 C223.74912384 255.5403125 223.74824768 254.643125 223.74734497 253.71875 C223.55922394 195.06143939 199.70451388 141.38198287 159.375 99.3125 C158.48039062 98.36503906 157.58578125 97.41757813 156.6640625 96.44140625 C149.75998731 89.30449568 142.30488392 83.24414885 134.375 77.3125 C133.81441895 76.88582031 133.25383789 76.45914063 132.67626953 76.01953125 C123.12016384 68.76526124 113.01727007 62.83277431 102.375 57.3125 C101.62621582 56.92175293 100.87743164 56.53100586 100.10595703 56.12841797 C16.70694409 13.15764006 -86.89826482 30.68228687 -155.625 96.3125 Z " 
    fill="rgba(157, 158, 161, 1)" 
    transform="translate(255.625, 25.3125) scale(0.9)"/>

  <path d="M0 0 C4.96426525 2.30483744 7.42688965 5.21789711 10 10 C10.55429941 13.35437618 10.50644761 16.6512881 10.45410156 20.04443359 C10.45468567 21.04017395 10.45526978 22.03591431 10.45587158 23.06182861 C10.45309303 26.34105737 10.42201089 29.61936825 10.390625 32.8984375 C10.38316182 35.17672224 10.37746925 37.45501342 10.37347412 39.73330688 C10.35822399 45.72082334 10.31894697 51.7079498 10.2746582 57.6953125 C10.23369244 63.80854009 10.21546028 69.92183088 10.1953125 76.03515625 C10.15245257 88.02360856 10.08420832 100.01177181 10 112 C11.2645401 111.99111755 12.5290802 111.98223511 13.8319397 111.9730835 C25.75009824 111.89199029 37.66820079 111.83203087 49.58657265 111.79275131 C55.71391933 111.77187838 61.84104324 111.74356547 67.96826172 111.69824219 C73.88158736 111.6547749 79.79469876 111.63086068 85.70817184 111.62049103 C87.96402738 111.61310132 90.21987122 111.59867101 92.47563553 111.57707977 C95.63587008 111.54803484 98.79521981 111.54404456 101.95556641 111.54589844 C102.88777008 111.53151733 103.81997375 111.51713623 104.78042603 111.50231934 C110.37132032 111.53779851 113.56917563 112.25962613 118 116 C121.62833663 119.81930172 122.31000458 122.88279006 122.5 128 C122.31000458 133.11720994 121.62833663 136.18069828 118 140 C112.70793619 144.46740731 108.56576689 144.55607711 101.95556641 144.45410156 C100.46195587 144.45497772 100.46195587 144.45497772 98.93817139 144.45587158 C95.65894263 144.45309303 92.38063175 144.42201089 89.1015625 144.390625 C86.82327776 144.38316182 84.54498658 144.37746925 82.26669312 144.37347412 C76.27917666 144.35822399 70.2920502 144.31894697 64.3046875 144.2746582 C58.19145991 144.23369244 52.07816912 144.21546028 45.96484375 144.1953125 C33.97639144 144.15245257 21.98822819 144.08420832 10 144 C10.00888245 145.2645401 10.01776489 146.5290802 10.0269165 147.8319397 C10.10800971 159.75009824 10.16796913 171.66820079 10.20724869 183.58657265 C10.22812162 189.71391933 10.25643453 195.84104324 10.30175781 201.96826172 C10.3452251 207.88158736 10.36913932 213.79469876 10.37950897 219.70817184 C10.38689868 221.96402738 10.40132899 224.21987122 10.42292023 226.47563553 C10.45196516 229.63587008 10.45595544 232.79521981 10.45410156 235.95556641 C10.46848267 236.88777008 10.48286377 237.81997375 10.49768066 238.78042603 C10.46220149 244.37132032 9.74037387 247.56917563 6 252 C2.18069828 255.62833663 -0.88279006 256.31000458 -6 256.5 C-11.11720994 256.31000458 -14.18069828 255.62833663 -18 252 C-22.46740731 246.70793619 -22.55607711 242.56576689 -22.45410156 235.95556641 C-22.45468567 234.95982605 -22.45526978 233.96408569 -22.45587158 232.93817139 C-22.45309303 229.65894263 -22.42201089 226.38063175 -22.390625 223.1015625 C-22.38316182 220.82327776 -22.37746925 218.54498658 -22.37347412 216.26669312 C-22.35822399 210.27917666 -22.31894697 204.2920502 -22.2746582 198.3046875 C-22.23369244 192.19145991 -22.21546028 186.07816912 -22.1953125 179.96484375 C-22.15245257 167.97639144 -22.08420832 155.98822819 -22 144 C-23.89681015 144.01332367 -23.89681015 144.01332367 -25.8319397 144.0269165 C-37.75009824 144.10800971 -49.66820079 144.16796913 -61.58657265 144.20724869 C-67.71391933 144.22812162 -73.84104324 144.25643453 -79.96826172 144.30175781 C-85.88158736 144.3452251 -91.79469876 144.36913932 -97.70817184 144.37950897 C-99.96402738 144.38689868 -102.21987122 144.40132899 -104.47563553 144.42292023 C-107.63587008 144.45196516 -110.79521981 144.45595544 -113.95556641 144.45410156 C-114.88777008 144.46848267 -115.81997375 144.48286377 -116.78042603 144.49768066 C-122.37132032 144.46220149 -125.56917563 143.74037387 -130 140 C-133.62833663 136.18069828 -134.31000458 133.11720994 -134.5 128 C-134.31000458 122.88279006 -133.62833663 119.81930172 -130 116 C-124.70793619 111.53259269 -120.56576689 111.44392289 -113.95556641 111.54589844 C-112.46195587 111.54502228 -112.46195587 111.54502228 -110.93817139 111.54412842 C-107.65894263 111.54690697 -104.38063175 111.57798911 -101.1015625 111.609375 C-98.82327776 111.61683818 -96.54498658 111.62253075 -94.26669312 111.62652588 C-88.27917666 111.64177601 -82.2920502 111.68105303 -76.3046875 111.7253418 C-70.19145991 111.76630756 -64.07816912 111.78453972 -57.96484375 111.8046875 C-45.97639144 111.84754743 -33.98822819 111.91579168 -22 112 C-22.00888245 110.7354599 -22.01776489 109.4709198 -22.0269165 108.1680603 C-22.10800971 96.24990176 -22.16796913 84.33179921 -22.20724869 72.41342735 C-22.22812162 66.28608067 -22.25643453 60.15895676 -22.30175781 54.03173828 C-22.3452251 48.11841264 -22.36913932 42.20530124 -22.37950897 36.29182816 C-22.38689868 34.03597262 -22.40132899 31.78012878 -22.42292023 29.52436447 C-22.45196516 26.36412992 -22.45595544 23.20478019 -22.45410156 20.04443359 C-22.46848267 19.11222992 -22.48286377 18.18002625 -22.49768066 17.21957397 C-22.46220149 11.62867968 -21.74037387 8.43082437 -18 4 C-12.72867143 -1.00776214 -6.89190982 -0.92775709 0 0 Z " 
    fill="rgba(255, 255, 255, 1)" 
    transform="translate(262,128)"/>
</svg>