<?xml version="1.0" encoding="UTF-8"?>
<svg version="1.1" xmlns="http://www.w3.org/2000/svg" width="512" height="512" viewBox="0 0 512 512">
  <path d="M0 0 C1.01790619 0.00215515 2.03581238 0.0043103 3.08456421 0.00653076 C17.69363523 0.05620146 32.02575853 0.30709809 46.375 3.3125 C47.34985352 3.51117676 48.32470703 3.70985352 49.32910156 3.91455078 C88.37782454 12.08284366 124.83813271 27.70153311 156.375 52.3125 C157.27089844 52.99699219 158.16679687 53.68148437 159.08984375 54.38671875 C174.64561709 66.50203669 189.29582193 80.73146847 201.375 96.3125 C202.14972656 97.27027344 202.92445313 98.22804688 203.72265625 99.21484375 C238.26056965 142.61986011 256.81394766 197.76289597 256.69067383 253.03979492 C256.6875221 255.97938487 256.71104926 258.9179558 256.73632812 261.85742188 C256.78098737 275.23056192 255.57551542 288.12666711 253.375 301.3125 C253.09281616 303.01805054 253.09281616 303.01805054 252.80493164 304.75805664 C245.77946967 343.86954746 228.79665906 381.05202178 204.375 412.3125 C203.61574219 413.28445313 202.85648437 414.25640625 202.07421875 415.2578125 C189.73986402 430.63741644 175.93895499 445.19015196 160.375 457.3125 C159.43914062 458.07691406 158.50328125 458.84132813 157.5390625 459.62890625 C125.58628299 485.2157721 86.41988322 501.72551276 46.375 509.3125 C45.56562988 509.47621094 44.75625977 509.63992188 43.92236328 509.80859375 C13.88110013 515.67977137 -20.7615176 514.58512909 -50.625 508.3125 C-52.14794678 507.99901611 -52.14794678 507.99901611 -53.70166016 507.67919922 C-90.84546555 499.78695344 -125.70945445 483.68345578 -155.625 460.3125 C-156.59695312 459.55324219 -157.56890625 458.79398437 -158.5703125 458.01171875 C-173.94991644 445.67736402 -188.50265196 431.87645499 -200.625 416.3125 C-201.77162109 414.90871094 -201.77162109 414.90871094 -202.94140625 413.4765625 C-228.5282721 381.52378299 -245.03801276 342.35738322 -252.625 302.3125 C-252.78871094 301.50312988 -252.95242187 300.69375977 -253.12109375 299.85986328 C-258.59069558 271.87335724 -258.46977511 238.21828161 -252.625 210.3125 C-252.42632324 209.33764648 -252.22764648 208.36279297 -252.02294922 207.35839844 C-241.93598313 159.13741149 -219.89911449 114.53770064 -185.40722656 79.14160156 C-183.63301167 77.32072238 -181.87518486 75.48496071 -180.1171875 73.6484375 C-173.01832106 66.31138736 -165.60682072 59.74213624 -157.41796875 53.64794922 C-155.58092428 52.27967127 -153.75911069 50.89264471 -151.9375 49.50390625 C-143.51077324 43.13790222 -134.81596417 37.50688619 -125.625 32.3125 C-124.99464844 31.94946777 -124.36429688 31.58643555 -123.71484375 31.21240234 C-85.96656579 9.60246645 -43.19754839 -0.16448837 0 0 Z M-155.625 96.3125 C-156.12241699 96.78268555 -156.61983398 97.25287109 -157.13232422 97.73730469 C-165.13838763 105.33444934 -172.03249721 113.47194153 -178.625 122.3125 C-179.05022949 122.87163086 -179.47545898 123.43076172 -179.91357422 124.00683594 C-187.16970107 133.56450244 -193.10360829 143.66807576 -198.625 154.3125 C-199.01574707 155.06128418 -199.40649414 155.81006836 -199.80908203 156.58154297 C-215.67172991 187.3682599 -223.08020261 221.12664341 -223 255.625 C-222.99912384 256.54836151 -222.99824768 257.47172302 -222.99734497 258.42306519 C-222.81378459 317.25448491 -199.15704805 371.11475135 -158.625 413.3125 C-157.7690625 414.2096875 -156.913125 415.106875 -156.03125 416.03125 C-150.26417803 421.9443238 -144.1837581 427.29642238 -137.625 432.3125 C-136.98030762 432.8065332 -136.33561523 433.30056641 -135.67138672 433.80957031 C-124.83901324 442.03586549 -113.72845013 449.11374313 -101.625 455.3125 C-100.8820166 455.69889648 -100.1390332 456.08529297 -99.37353516 456.48339844 C-47.31468466 483.31692993 13.98450289 486.84888824 69.49414062 469.26123047 C102.96928428 458.23712808 132.08101384 439.60803934 157.375 415.3125 C158.72078125 414.02859375 158.72078125 414.02859375 160.09375 412.71875 C166.01226517 406.94637101 171.31283335 400.84514578 176.375 394.3125 C176.79894043 393.77028809 177.22288086 393.22807617 177.65966797 392.66943359 C208.01011115 353.60307944 223.86836364 305.74996348 223.75 256.4375 C223.74912384 255.5403125 223.74824768 254.643125 223.74734497 253.71875 C223.55922394 195.06143939 199.70451388 141.38198287 159.375 99.3125 C158.48039062 98.36503906 157.58578125 97.41757813 156.6640625 96.44140625 C149.75998731 89.30449568 142.30488392 83.24414885 134.375 77.3125 C133.81441895 76.88582031 133.25383789 76.45914063 132.67626953 76.01953125 C123.12016384 68.76526124 113.01727007 62.83277431 102.375 57.3125 C101.62621582 56.92175293 100.87743164 56.53100586 100.10595703 56.12841797 C16.70694409 13.15764006 -86.89826482 30.68228687 -155.625 96.3125 Z " 
    fill="rgba(157, 158, 161, 1)" 
    transform="translate(255.625, 25.3125) scale(0.9)"/>

  <path d="M0 0 C2.34100713 2.0790952 4.53964139 4.28602819 6.73974609 6.51269531 C7.38435791 7.15701508 8.02896973 7.80133484 8.69311523 8.46517944 C10.8080021 10.58145198 12.91572938 12.70470475 15.0234375 14.828125 C16.49416072 16.30258106 17.96532814 17.77659417 19.43692017 19.25018311 C23.29808485 23.11896292 27.153204 26.99371241 31.00708008 30.86975098 C34.94508534 34.82826034 38.88879911 38.78107352 42.83203125 42.734375 C50.5602739 50.48403015 58.28213954 58.24000616 66 66 C70.37950732 64.33090663 73.18401999 61.04530564 76.38574219 57.76196289 C77.01721161 57.12275406 77.64868103 56.48354523 78.29928589 55.82496643 C79.66876506 54.43784699 81.03602884 53.04853764 82.40132904 51.65730476 C84.56558391 49.45360637 86.7373011 47.25753036 88.91143799 45.06358337 C95.09176128 38.82524657 101.26243308 32.57749753 107.41796875 26.31469727 C111.18545784 22.48263611 114.96514962 18.66297287 118.75272369 14.85076714 C120.19106359 13.39819763 121.6247193 11.9409738 123.05348969 10.47899055 C125.05645481 8.43012781 127.07458291 6.39739048 129.09667969 4.36743164 C129.96983322 3.4626004 129.96983322 3.4626004 130.86062622 2.53948975 C135.42476284 -1.99221634 139.95867028 -4.47565026 146.46875 -5.3203125 C152.92914016 -4.69912114 156.83128739 -1.91094681 161 3 C163.57508933 7.73816437 163.48700077 12.87241113 162 18 C159.05943916 22.90007508 155.53987013 26.73552462 151.48730469 30.73974609 C150.84298492 31.38435791 150.19866516 32.02896973 149.53482056 32.69311523 C147.41854802 34.8080021 145.29529525 36.91572938 143.171875 39.0234375 C141.69741894 40.49416072 140.22340583 41.96532814 138.74981689 43.43692017 C134.88103708 47.29808485 131.00628759 51.153204 127.13024902 55.00708008 C123.17173966 58.94508534 119.21892648 62.88879911 115.265625 66.83203125 C107.51596985 74.5602739 99.75999384 82.28213954 92 90 C93.66909337 94.37950732 96.95469436 97.18401999 100.23803711 100.38574219 C100.87724594 101.01721161 101.51645477 101.64868103 102.17503357 102.29928589 C103.56215301 103.66876506 104.95146236 105.03602884 106.34269524 106.40132904 C108.54639363 108.56558391 110.74246964 110.7373011 112.93641663 112.91143799 C119.17475343 119.09176128 125.42250247 125.26243308 131.68530273 131.41796875 C135.51736389 135.18545784 139.33702713 138.96514962 143.14923286 142.75272369 C144.60180237 144.19106359 146.0590262 145.6247193 147.52100945 147.05348969 C149.56987219 149.05645481 151.60260952 151.07458291 153.63256836 153.09667969 C154.5373996 153.96983322 154.5373996 153.96983322 155.46051025 154.86062622 C159.99221634 159.42476284 162.47565026 163.95867028 163.3203125 170.46875 C162.78451623 176.04103123 160.86893142 179.39889802 156.95703125 183.3984375 C152.94620062 186.68075398 148.95023525 187.22760685 143.9375 186.875 C137.02355586 186.1441391 131.88102819 180.16386674 127.26025391 175.48730469 C126.61564209 174.84298492 125.97103027 174.19866516 125.30688477 173.53482056 C123.1919979 171.41854802 121.08427062 169.29529525 118.9765625 167.171875 C117.50583928 165.69741894 116.03467186 164.22340583 114.56307983 162.74981689 C110.70191515 158.88103708 106.846796 155.00628759 102.99291992 151.13024902 C99.05491466 147.17173966 95.11120089 143.21892648 91.16796875 139.265625 C83.4397261 131.51596985 75.71786046 123.75999384 68 116 C63.62049268 117.66909337 60.81598001 120.95469436 57.61425781 124.23803711 C56.98278839 124.87724594 56.35131897 125.51645477 55.70071411 126.17503357 C54.33123494 127.56215301 52.96397116 128.95146236 51.59867096 130.34269524 C49.43441609 132.54639363 47.2626989 134.74246964 45.08856201 136.93641663 C38.90823872 143.17475343 32.73756692 149.42250247 26.58203125 155.68530273 C22.81454216 159.51736389 19.03485038 163.33702713 15.24727631 167.14923286 C13.80893641 168.60180237 12.3752807 170.0590262 10.94651031 171.52100945 C8.94354519 173.56987219 6.92541709 175.60260952 4.90332031 177.63256836 C4.32121796 178.23578918 3.7391156 178.83901001 3.13937378 179.46051025 C-1.42476284 183.99221634 -5.95867028 186.47565026 -12.46875 187.3203125 C-18.04103123 186.78451623 -21.39889802 184.86893142 -25.3984375 180.95703125 C-28.68075398 176.94620062 -29.22760685 172.95023525 -28.875 167.9375 C-28.1441391 161.02355586 -22.16386674 155.88102819 -17.48730469 151.26025391 C-16.84298492 150.61564209 -16.19866516 149.97103027 -15.53482056 149.30688477 C-13.41854802 147.1919979 -11.29529525 145.08427062 -9.171875 142.9765625 C-7.69741894 141.50583928 -6.22340583 140.03467186 -4.74981689 138.56307983 C-0.88103708 134.70191515 2.99371241 130.846796 6.86975098 126.99291992 C10.82826034 123.05491466 14.78107352 119.11120089 18.734375 115.16796875 C26.48403015 107.4397261 34.24000616 99.71786046 42 92 C40.33090663 87.62049268 37.04530564 84.81598001 33.76196289 81.61425781 C33.12275406 80.98278839 32.48354523 80.35131897 31.82496643 79.70071411 C30.43784699 78.33123494 29.04853764 76.96397116 27.65730476 75.59867096 C25.45360637 73.43441609 23.25753036 71.2626989 21.06358337 69.08856201 C14.82524657 62.90823872 8.57749753 56.73756692 2.31469727 50.58203125 C-1.51736389 46.81454216 -5.33702713 43.03485038 -9.14923286 39.24727631 C-10.60180237 37.80893641 -12.0590262 36.3752807 -13.52100945 34.94651031 C-15.56987219 32.94354519 -17.60260952 30.92541709 -19.63256836 28.90332031 C-20.23578918 28.32121796 -20.83901001 27.7391156 -21.46051025 27.13937378 C-25.99221634 22.57523716 -28.47565026 18.04132972 -29.3203125 11.53125 C-28.78451623 5.95896877 -26.86893142 2.60110198 -22.95703125 -1.3984375 C-15.48037735 -7.51705646 -6.99599645 -5.28235584 0 0 Z " 
    fill="rgba(255, 255, 255, 1)" 
    transform="translate(189,165)"/>
</svg>